# xmcd
#
# Track frame offsets:
#	150
#	15575
#	28977
#	42945
#	53950
#	68382
#	84495
#	98540
#	115930
#	128852
#	142522
#	157750
#
# Disc length: 2292 seconds
#
# Revision: 0
# Processed by: cddbd v1.5.2PL0 Copyright (c) Steve Scherf et al.
# Submitted via: audiograbber 1.83.01
#
DISCID=8808f20c
DTITLE=Byron Hill - Stay A While
DYEAR=2009
DGENRE=Country
TTITLE0=Stay A While
TTITLE1=More Where That Came From
TTITLE2=Blame It On Kristofferson
TTITLE3=You Ain't Chet Yet
TTITLE4=Way Too Long
TTITLE5=Once You've Been To The Moon
TTITLE6=Life's A Ditch
TTITLE7=That Old Car
TTITLE8=The Photograph
TTITLE9=All The Home I Need
TTITLE10=The Dream Comes True
TTITLE11=My Daughter's Father
EXTD=
EXTT0=
EXTT1=
EXTT2=
EXTT3=
EXTT4=
EXTT5=
EXTT6=
EXTT7=
EXTT8=
EXTT9=
EXTT10=
EXTT11=
PLAYORDER=
